<?xml version="1.0" encoding="UTF-8"?>
<svg xmlns="http://www.w3.org/2000/svg" width="509" height="185" viewBox="0 0 509 185" fill="none">
  <path d="M0 137.579V122.965L28.6163 118.023V135.832C28.6163 153.896 35.0256 163.269 48.4311 163.269C60.9789 163.269 67.1625 155.089 67.1625 142.009V135.576C67.1625 121.73 65.312 114.786 50.3268 105.881L27.5782 92.5465C8.57587 81.1713 2.16654 68.0494 2.16654 50.0281V41.1239C2.16654 15.647 20.3564 0.309662 48.7019 0.309662C78.6722 0.309662 95.508 12.4517 95.508 43.3393V56.4612L67.4334 61.4033V45.8103C67.4334 29.4932 61.5657 21.0576 48.7019 21.0576C36.9213 21.0576 30.7828 28.7263 30.7828 39.3772V47.7701C30.7828 59.1453 35.6124 66.5583 46.5805 72.9914L69.8707 86.8376C91.2652 99.4483 96.0948 113.039 96.0948 132.083V141.498C96.0948 168.466 80.0263 184.272 48.4762 184.272C17.1517 184.315 0 167.742 0 137.579Z" fill="black"></path>
  <path d="M238.68 181.716V2.43982H269.463L308.731 106.947C312.206 116.788 314.373 126.161 316.494 136.513H317.036C315.953 122.113 315.185 108.225 315.185 93.1003V2.43982H340.868V181.716H312.252L271.584 71.8837C267.025 60.2529 265.175 52.2009 263.008 42.3168H262.196C263.55 54.4162 264.317 64.8115 264.317 77.1666V181.716H238.68Z" fill="black"></path>
  <path d="M365.738 129.399V52.4991C365.738 18.3736 384.199 0.309662 417.103 0.309662C448.653 0.309662 466.076 14.9227 466.076 47.0458V62.3831L436.647 67.4956V48.0257C436.647 30.473 430.238 21.8245 416.562 21.8245C402.66 21.8245 394.896 29.7488 394.896 49.7725V132.125C394.896 152.149 402.66 162.544 417.103 162.544C430.193 162.544 436.918 153.896 436.918 137.792V120.75L465.805 115.638V137.579C465.805 167.998 447.615 184.315 416.562 184.315C383.928 184.315 365.738 165.995 365.738 129.399Z" fill="black"></path>
  <path d="M496.588 14.3263C498.077 14.3263 498.935 13.5168 498.935 12.1109C498.935 10.7902 498.077 10.0233 496.588 10.0233H492.932V14.3263H496.588ZM499.476 17.2659L501.688 20.589H499.296L496.272 15.86H492.932V20.589H490.72V8.31915H496.543C499.567 8.31915 501.282 9.72507 501.282 12.0257C501.282 14.4115 499.567 15.7322 496.543 15.7322V15.86C497.806 15.9026 498.935 16.4564 499.476 17.2659ZM506.743 14.4967C506.743 8.14873 502.681 4.35701 495.865 4.35701C489.05 4.35701 484.988 8.14873 484.988 14.4967C484.988 20.8446 489.05 24.6363 495.865 24.6363C502.681 24.6363 506.743 20.8872 506.743 14.4967ZM509 14.4967C509 22.1227 504.125 26.6387 495.865 26.6387C487.515 26.6387 482.641 22.1227 482.641 14.4967C482.641 6.95583 487.515 2.39725 495.865 2.39725C504.125 2.43985 509 6.95583 509 14.4967Z" fill="black"></path>
  <path d="M175.534 181.844H147.866L147.415 98.7666H175.038L175.534 181.844Z" fill="black"></path>
  <path d="M185.419 2.35464L175.038 98.7666C197.967 98.7666 206.137 85.2613 209.116 62.2127L215.615 2.35464H185.419Z" fill="black"></path>
  <path d="M137.033 2.35464L147.415 98.7666C124.486 98.7666 116.316 85.2613 113.337 62.2127L106.837 2.35464H137.033Z" fill="black"></path>
</svg>
